# xmcd
#
# Track frame offsets: 
#        150
#        16204
#        34324
#        52562
#        66499
#        78373
#        95202
#        110324
#        120722
#        130883
#
# Disc length: 1927 seconds
#
# Revision: 1
# Processed by: cddbd v1.5.2PL0 Copyright (c) Steve Scherf et al.
# Submitted via: ExactAudioCopy v0.99pb4
#
DISCID=8007850a
DTITLE=Roger Marin - 2006-01-01 CD High Roads
DYEAR=2006
DGENRE=Roots
TTITLE0=Rollin' On
TTITLE1=Broken Glass and Busted Songs
TTITLE2=High Roads
TTITLE3=Rogina's Song
TTITLE4=Silver Moon
TTITLE5=Blondie And Dagwood
TTITLE6=49 Tons
TTITLE7=Filn Star
TTITLE8=City Girl
TTITLE9=Hang That Hat
EXTD=
EXTT0=
EXTT1=
EXTT2=
EXTT3=
EXTT4=
EXTT5=
EXTT6=
EXTT7=
EXTT8=
EXTT9=
PLAYORDER=
